<svg id="Layer_1" data-name="Layer 1" xmlns="http://www.w3.org/2000/svg" viewBox="0 0 28.63 25.22"><defs><style>.cls-1,.cls-2{fill:none;stroke:#606975;stroke-miterlimit:10;stroke-width:0.5px;}.cls-2{stroke-dasharray:1.63;}.cls-3{fill:#606975;}</style></defs><title>Vector Smart Object1</title><path class="cls-1" d="M73.81,153.76H87.59A1.75,1.75,0,0,0,89.34,152v-9.47a1.75,1.75,0,0,0-1.74-1.74H73.81v13Z" transform="translate(-60.96 -128.79)"/><polyline class="cls-2" points="26.46 20.32 26.46 23.32 12.85 23.32"/><polyline class="cls-2" points="12.85 13.63 26.46 13.63 26.46 16.75"/><path class="cls-1" d="M89.34,149.11H85.59a0.87,0.87,0,0,1-.87-0.87v-1.83a0.87,0.87,0,0,1,.87-0.87h3.74" transform="translate(-60.96 -128.79)"/><circle class="cls-1" cx="25.78" cy="18.34" r="0.67"/><polyline class="cls-1" points="18.06 11.9 22.98 7.89 26.25 11.9"/><polyline class="cls-1" points="15.88 11.9 20.73 7.04 22.2 8.52"/><path class="cls-3" d="M69.84,128.79a5.33,5.33,0,0,1,.47.37L73.15,132a1.42,1.42,0,0,1,.19.33,1.64,1.64,0,0,1-.35.09H71.9a0.44,0.44,0,0,0-.52.53c0,0.72,0,1.44,0,2.15a0.43,0.43,0,0,1-.51.52H68.62a0.41,0.41,0,0,1-.47-0.48c0-.74,0-1.47,0-2.21a0.44,0.44,0,0,0-.5-0.51H66.36a0.92,0.92,0,0,1-.26-0.09,0.84,0.84,0,0,1,.12-0.26L69.33,129a1.6,1.6,0,0,1,.24-0.17h0.26Z" transform="translate(-60.96 -128.79)"/><path class="cls-3" d="M69.61,146.06c-0.14-.12-0.28-0.22-0.41-0.35l-2.95-3a0.6,0.6,0,0,1-.08-0.17,0.55,0.55,0,0,1,.18-0.08H67.6a0.46,0.46,0,0,0,.55-0.55c0-.77,0-1.55,0-2.32a0.44,0.44,0,0,1,.52-0.52h2.17a0.45,0.45,0,0,1,.53.54c0,0.77,0,1.54,0,2.3a0.46,0.46,0,0,0,.54.55H73a1,1,0,0,1,.27.09,1.23,1.23,0,0,1-.14.21l-2.93,2.94a4.41,4.41,0,0,1-.39.31H69.61Z" transform="translate(-60.96 -128.79)"/><path class="cls-3" d="M61,137.29c0.1-.12.2-0.26,0.31-0.37l3-2.92a1.22,1.22,0,0,1,.28-0.16,1.16,1.16,0,0,1,.1.32q0,3.23,0,6.46a1.1,1.1,0,0,1,0,.13c0,0.19-.12.24-0.28,0.13a0.94,0.94,0,0,1-.13-0.11l-3.07-3.08a2.68,2.68,0,0,1-.18-0.22Q61,137.39,61,137.29Z" transform="translate(-60.96 -128.79)"/><path class="cls-3" d="M74.91,137.37q0-1.56,0-3.12a0.72,0.72,0,0,1,0-.17,0.24,0.24,0,0,1,.08-0.15,0.2,0.2,0,0,1,.16.06l3.14,3.06a0.4,0.4,0,0,1,0,.65l-3.06,3a1.23,1.23,0,0,1-.21.14,0.86,0.86,0,0,1-.1-0.27C74.91,139.53,74.91,138.45,74.91,137.37Z" transform="translate(-60.96 -128.79)"/></svg>