<svg id="Layer_1" data-name="Layer 1" xmlns="http://www.w3.org/2000/svg" viewBox="0 0 1159 1222"><defs><style>.cls-1,.cls-2{fill:none;stroke:#606975;stroke-linecap:round;stroke-width:36px;}.cls-1{stroke-miterlimit:10;}.cls-2{stroke-linejoin:round;}</style></defs><title>Vector Smart Object</title><polyline class="cls-1" points="251 990 251 689 317 616 1141 616 1141 1116"/><polyline class="cls-2" points="251 689 18 147 18 18 832 18 1141 616"/><line class="cls-1" x1="18" y1="24" x2="317" y2="616"/><polygon class="cls-2" points="205 113 763 113 963 515 405 515 205 113"/><rect class="cls-2" x="450" y="725" width="350" height="90" rx="1" ry="1"/><line class="cls-2" x1="317" y1="623" x2="317" y2="1204"/><path class="cls-2" d="M352,482.28v153s45,5,45,34c0,0,11-27,40-27s36,27,36,27,11-27,41-27,35,27,35,27,8-31,31-31v-156" transform="translate(162 338.72)"/></svg>